<?xml version="1.0" encoding="UTF-8" standalone="no"?>
<!-- Created with Inkscape (http://www.inkscape.org/) -->

<svg
   xmlns:dc="http://purl.org/dc/elements/1.1/"
   xmlns:cc="http://creativecommons.org/ns#"
   xmlns:rdf="http://www.w3.org/1999/02/22-rdf-syntax-ns#"
   xmlns:svg="http://www.w3.org/2000/svg"
   xmlns="http://www.w3.org/2000/svg"
   xmlns:sodipodi="http://sodipodi.sourceforge.net/DTD/sodipodi-0.dtd"
   xmlns:inkscape="http://www.inkscape.org/namespaces/inkscape"
   width="971.42053"
   height="184.83588"
   id="svg2"
   sodipodi:version="0.32"
   inkscape:version="0.48.1 r9760"
   sodipodi:docname="1 dokumentu berria"
   inkscape:output_extension="org.inkscape.output.svg.inkscape"
   version="1.1">
  <defs
     id="defs4" />
  <sodipodi:namedview
     id="base"
     pagecolor="#ffffff"
     bordercolor="#666666"
     borderopacity="1.0"
     inkscape:pageopacity="0.0"
     inkscape:pageshadow="2"
     inkscape:zoom="0.49497475"
     inkscape:cx="554.0377"
     inkscape:cy="-73.132378"
     inkscape:document-units="px"
     inkscape:current-layer="layer1"
     inkscape:window-width="1280"
     inkscape:window-height="995"
     inkscape:window-x="0"
     inkscape:window-y="0"
     showgrid="false"
     height="744.09px"
     fit-margin-top="0"
     fit-margin-left="0"
     fit-margin-right="0"
     fit-margin-bottom="0"
     inkscape:window-maximized="1" />
  <metadata
     id="metadata7">
    <rdf:RDF>
      <cc:Work
         rdf:about="">
        <dc:format>image/svg+xml</dc:format>
        <dc:type
           rdf:resource="http://purl.org/dc/dcmitype/StillImage" />
        <dc:title></dc:title>
      </cc:Work>
    </rdf:RDF>
  </metadata>
  <g
     inkscape:label="Capa 1"
     inkscape:groupmode="layer"
     id="layer1"
     transform="translate(-33.508123,-338.89024)">
    <text
       xml:space="preserve"
       style="font-size:64.04545593px;font-style:normal;font-variant:normal;font-weight:300;font-stretch:normal;text-align:start;line-height:125%;letter-spacing:0px;word-spacing:0px;writing-mode:lr-tb;text-anchor:start;fill:#000000;fill-opacity:1;stroke:none;display:inline;font-family:RotisSansSerif;-inkscape-font-specification:RotisSansSerif Light"
       x="247.63162"
       y="391.23318"
       id="text8317-3-8"
       sodipodi:linespacing="125%"><tspan
         sodipodi:role="line"
         x="247.63162"
         y="391.23318"
         style="font-style:normal;font-variant:normal;font-weight:normal;font-stretch:normal;fill:#7d7d7d;fill-opacity:1;font-family:Prosto One;-inkscape-font-specification:Prosto One"
         id="tspan3377">Cambridge University</tspan></text>
    <text
       xml:space="preserve"
       style="font-size:118.14170074px;font-style:normal;font-variant:normal;font-weight:300;font-stretch:normal;text-align:start;line-height:125%;letter-spacing:0px;word-spacing:0px;writing-mode:lr-tb;text-anchor:start;fill:#000000;fill-opacity:1;stroke:none;display:inline;font-family:RotisSansSerif;-inkscape-font-specification:RotisSansSerif Light"
       x="244.92677"
       y="352.42065"
       id="text8317-3-8-9"
       sodipodi:linespacing="125%"><tspan
         sodipodi:role="line"
         x="244.92677"
         y="352.42065"
         id="tspan8526-5-0"
         style="font-style:normal;font-variant:normal;font-weight:normal;font-stretch:normal;font-family:Prosto One;-inkscape-font-specification:Prosto One" /><tspan
         sodipodi:role="line"
         x="244.92677"
         y="500.09778"
         style="font-style:normal;font-variant:normal;font-weight:normal;font-stretch:normal;font-family:Prosto One;-inkscape-font-specification:Prosto One"
         id="tspan3377-0"><tspan
           style="stroke:none"
           id="tspan4203">Caving</tspan><tspan
           style="fill:#7d7d7d;fill-opacity:1"
           id="tspan4207"> Club</tspan></tspan></text>
    <path
       d="m 180.99106,506.38905 c 11.03326,0 19.99883,-8.96548 19.99883,-20.03268 l 0,-127.46711 c 0,-11.0672 -8.96557,-19.99902 -19.99883,-19.99902 l -127.484083,0 c -11.067156,0 -19.998854,8.93182 -19.998854,19.99902 l 0,127.46711 c 0,11.0672 8.931698,20.03268 19.998854,20.03268 l 127.484083,0 z"
       id="path5074"
       inkscape:connector-curvature="0"
       style="fill:#000000;fill-opacity:1;fill-rule:nonzero;display:inline" />
    <path
       d="m 142.6543,373.48148 c 0,6.22006 -5.01665,11.25368 -11.21969,11.25368 -3.79638,0 -7.16908,-1.91523 -9.20285,-4.79633 l 3.54216,0 c 2.35579,0 4.40654,-1.38986 5.37258,-3.37262 l 1.52533,-3.28794 c 0.1016,-0.18587 0.28811,-0.35603 0.55929,-0.35603 l 9.42318,0 0,0.55924 z"
       id="path5078"
       inkscape:connector-curvature="0"
       style="fill:#ffffff;fill-opacity:1;fill-rule:nonzero;display:inline" />
    <path
       d="m 144.80672,370.04113 c -1.5084,-5.96584 -6.94876,-10.35534 -13.37211,-10.35534 -7.64361,0 -13.79581,6.18599 -13.79581,13.79569 0,1.25417 0.16955,2.49141 0.4576,3.61011 l 7.67752,0 c 1.23722,0 2.3219,-0.7288 2.81341,-1.74568 l 1.49144,-3.28794 c 0.54233,-1.18644 1.7626,-2.01684 3.15235,-2.01684 l 11.5756,0 z"
       id="path5080"
       inkscape:connector-curvature="0"
       style="fill:#ffffff;fill-opacity:1;fill-rule:nonzero;display:inline" />
    <path
       d="m 105.06325,380.04043 c 1.38975,-1.13542 1.57619,-3.15226 0.4576,-4.50824 l -6.050491,-7.44016 c -1.135529,-1.38965 -3.152366,-1.59306 -4.508206,-0.47457 l -25.89681,21.0665 c -1.355861,1.1187 -1.593127,3.13553 -0.474553,4.52518 l 6.067443,7.4573 c 1.118574,1.35577 3.13541,1.54226 4.52516,0.45764 l 25.879857,-21.08365 z"
       id="path5082"
       inkscape:connector-curvature="0"
       style="fill:#ffffff;fill-opacity:1;fill-rule:nonzero;display:inline" />
    <path
       d="m 79.488459,409.83534 c -1.457529,1.1187 -2.711701,2.54221 -3.677742,4.23709 -0.932152,1.61 -1.491439,3.33874 -1.74566,5.05056 l -7.389415,31.81174 -20.354702,19.60891 c -0.559287,0.52558 -1.06773,1.1187 -1.42364,1.81362 -2.152414,3.74538 -0.864352,8.50785 2.915078,10.66036 3.016788,1.72875 6.711485,1.18644 9.135075,-1.03382 l 22.642695,-21.88017 c 0.32202,-0.3897 0.627086,-0.81347 0.898262,-1.28804 0.322,-0.59312 0.593176,-1.18644 0.745709,-1.81342 l 4.609914,-20.16836 15.151677,15.10087 -0.0339,25.45621 c 0,2.71155 1.42364,5.32171 3.93196,6.77909 3.74554,2.11865 8.50799,0.83061 10.6604,-2.89804 0.72876,-1.37271 1.0508,-2.79643 0.983,-4.22015 l 0.0339,-28.28651 c 0.0677,-2.03378 -0.66098,-4.01674 -2.05073,-5.54207 l -16.321067,-16.11755 18.778567,-15.38896 4.33872,12.01614 c 0.35593,0.79653 0.91522,1.52533 1.61008,2.08457 l 17.94811,13.60941 c 2.42359,1.49146 5.66069,1.08483 7.67753,-1.06768 2.3219,-2.47448 2.1863,-6.38941 -0.28813,-8.69433 -0.0677,-0.0682 -0.16955,-0.1363 -0.23727,-0.20445 l -15.7279,-12.01635 -7.28772,-21.35459 c -1.15246,-2.81358 -3.20319,-5.25398 -6.05049,-6.88112 -4.83023,-2.74563 -10.62651,-2.35573 -14.93134,0.55945 L 79.48848,409.8343 z"
       id="path5084"
       inkscape:connector-curvature="0"
       style="fill:#ffffff;fill-opacity:1;fill-rule:nonzero;display:inline" />
    <path
       d="m 149.07765,370.1766 c -0.49148,-0.47457 -0.8135,-1.16929 -0.8135,-1.89809 0,-1.44065 1.15248,-2.61015 2.57612,-2.61015 l 38.86215,0.033 c 3.93197,0.033 6.35556,11.15208 3.71165,19.89721 -2.49139,8.10121 -9.86382,18.57529 -13.33821,15.03313 l -30.99821,-30.45596 z"
       id="path5086"
       inkscape:connector-curvature="0"
       style="fill:#ffffff;fill-opacity:1;fill-rule:nonzero;display:inline" />
  </g>
</svg>
